# Blender 4.2.0
# www.blender.org
mtllib untitled.mtl
o Cube
v 1.000000 1.000000 -1.000000
v 1.000000 -1.000000 -1.000000
v 1.000000 1.000000 1.000000
v 1.000000 -1.000000 1.000000
v -1.000000 1.000000 -1.000000
v -1.000000 -1.000000 -1.000000
v -1.000000 1.000000 1.000000
v -1.000000 -1.000000 1.000000
vn -0.0000 1.0000 -0.0000
vn -0.0000 -0.0000 1.0000
vn -1.0000 -0.0000 -0.0000
vn -0.0000 -1.0000 -0.0000
vn 1.0000 -0.0000 -0.0000
vn -0.0000 -0.0000 -1.0000
vt 0.625000 0.500000
vt 0.875000 0.500000
vt 0.875000 0.750000
vt 0.625000 0.750000
vt 0.375000 0.750000
vt 0.625000 1.000000
vt 0.375000 1.000000
vt 0.375000 0.000000
vt 0.625000 0.000000
vt 0.625000 0.250000
vt 0.375000 0.250000
vt 0.125000 0.500000
vt 0.375000 0.500000
vt 0.125000 0.750000
s 0
usemtl Material
f 1/1/1 5/2/1 7/3/1 3/4/1
f 4/5/2 3/4/2 7/6/2 8/7/2
f 8/8/3 7/9/3 5/10/3 6/11/3
f 6/12/4 2/13/4 4/5/4 8/14/4
f 2/13/5 1/1/5 3/4/5 4/5/5
f 6/11/6 5/10/6 1/1/6 2/13/6
o 10492_Bowling_Pin_v1_max2011_iteration-2
v 5.236163 5.162379 -0.492322
v 2.272259 0.079610 -2.161312
v 0.498808 1.690624 -3.948347
v -1.797897 0.031151 -2.540310
v -3.234918 0.212369 -0.888629
v 0.933695 0.217918 2.949250
v 2.824104 0.029966 1.103018
v -2.306622 27.212912 0.026061
v 5.064715 14.903237 -3.524526
v 0.930888 9.803121 -6.083725
v 0.619801 15.762181 -5.727462
v -5.106771 15.025264 -3.315867
v -5.941374 10.108204 -1.711688
v -6.039726 14.578027 1.209367
v -4.355601 15.265347 4.094577
v -1.452639 14.948493 5.881535
v 1.920874 15.318568 5.691639
v 5.264620 16.712004 1.889542
v 5.391877 10.348792 3.289317
v 3.809059 6.778412 -4.271132
v -2.629277 6.283885 -5.035258
v -5.151628 5.650301 1.609748
v -2.118843 0.028092 2.433366
v 4.098681 5.346631 3.410609
v 1.546100 23.821821 -2.200790
v -2.031071 15.131873 -5.711915
v -0.300509 23.937851 -2.658395
v -2.479664 24.005358 -1.119645
v -2.197268 24.297029 1.235880
v -0.801982 23.666401 2.671967
v 1.469745 23.077005 2.550011
v 2.629129 24.364090 -0.185289
v 2.125372 28.123564 -1.239488
v 3.557520 32.597572 -0.102376
v -3.174463 32.295162 1.509449
v -0.359646 33.793282 3.802905
v 2.968706 36.584717 -0.102848
v 2.799784 33.665222 -2.360992
v 0.505497 34.102100 -3.754158
v -2.972044 33.594528 -2.371176
v -3.426435 35.345428 -0.435891
v 1.662130 37.273212 -1.581518
v -0.500208 37.098499 -2.425693
v -2.094425 36.638172 2.231299
v 6.187380 12.396650 -1.137976
v -3.397837 8.917221 5.015431
v 0.714564 5.968550 5.586982
v 0.240489 28.119047 -2.399027
v -1.470406 27.631599 -1.762972
v -0.648476 27.214567 2.234324
v 1.966744 27.280876 1.282557
v 1.226615 37.662437 1.347493
v -1.560324 37.692913 -0.506879
v 2.777979 34.157398 2.511596
vn 0.1129 -0.4571 -0.8822
vn 0.6596 -0.2127 -0.7209
vn 0.4706 -0.7770 -0.4181
vn -0.6903 -0.7066 -0.1558
vn -0.4146 -0.7634 0.4953
vn -0.9224 -0.2594 0.2862
vn 0.1956 -0.7370 0.6469
vn 0.7385 -0.2807 0.6131
vn 0.1113 -0.2425 0.9637
vn -0.6499 -0.0632 -0.7574
vn 0.1034 -0.0749 -0.9918
vn -0.1690 0.2286 -0.9587
vn -0.8587 0.2385 0.4535
vn -0.2560 -0.0668 0.9644
vn -0.9950 -0.0445 0.0895
vn 0.7937 -0.0498 0.6062
vn -0.2499 0.3058 0.9187
vn 0.5719 0.2366 -0.7854
vn 0.9791 0.2013 -0.0289
vn 0.7868 0.1913 -0.5868
vn -0.8786 0.2485 -0.4077
vn -0.3565 0.1681 -0.9191
vn -0.8283 0.1819 -0.5299
vn -0.9723 0.1441 0.1841
vn -0.7193 0.1841 0.6698
vn 0.3671 0.1824 0.9121
vn 0.9035 0.2730 0.3303
vn 0.4965 0.3359 0.8004
vn 0.2035 0.2203 -0.9540
vn 0.1671 -0.0716 -0.9833
vn -0.9490 -0.1071 -0.2966
vn 0.9879 0.0196 -0.1539
vn 0.9530 -0.2881 -0.0940
vn 0.8624 -0.1052 -0.4951
vn 0.7637 0.0423 -0.6442
vn 0.9965 -0.0822 -0.0144
vn 0.1043 0.0951 -0.9900
vn -0.7697 0.0298 -0.6377
vn -0.8990 -0.1065 0.4247
vn -0.0881 0.0732 0.9934
vn 0.7129 0.1291 0.6892
vn 0.8523 0.5230 -0.0135
vn 0.4458 0.7543 -0.4821
vn -0.4491 0.8796 -0.1572
vn -0.1959 0.6817 -0.7050
vn -0.9371 0.3215 -0.1360
vn 0.2975 0.8448 0.4447
vn -0.5315 0.5723 0.6245
vn -0.4873 -0.2360 -0.8408
vn -0.5727 -0.1287 0.8096
vn 0.8349 -0.0571 0.5474
vn -0.3207 -0.7886 -0.5246
vn 0.5812 -0.7865 0.2088
vn -0.2308 0.1602 0.9597
vt 0.346653 0.068111
vt 0.273119 0.194519
vt 0.258533 0.024219
vt 0.535748 0.020447
vt 0.693914 0.030565
vt 0.604170 0.166045
vt 0.075843 0.024368
vt 0.070041 0.173073
vt 0.042730 0.108554
vt 0.448527 0.719252
vt 0.387582 0.735702
vt 0.394555 0.615701
vt 0.571567 0.639026
vt 0.626924 0.732688
vt 0.524111 0.716421
vt 0.657874 0.732152
vt 0.645232 0.624517
vt 0.335632 0.624040
vt 0.262974 0.613444
vt 0.255629 0.400000
vt 0.484750 0.605032
vt 0.417400 0.385588
vt 0.486060 0.391163
vt 0.579476 0.380657
vt 0.646252 0.405651
vt 0.053841 0.442350
vt 0.141301 0.456573
vt 0.177340 0.633836
vt 0.358092 0.407635
vt 0.346811 0.262498
vt 0.533985 0.272332
vt 0.191447 0.336824
vt 0.166859 0.166126
vt 0.318553 0.742326
vt 0.330847 0.881189
vt 0.278275 0.860538
vt 0.387516 0.886227
vt 0.461257 0.872032
vt 0.552375 0.850522
vt 0.635022 0.881111
vt 0.215701 0.891710
vt 0.240530 0.723594
vt 0.277924 0.956611
vt 0.340365 0.969522
vt 0.489841 0.969470
vt 0.419963 0.966802
vt 0.507021 0.918891
vt 0.663937 0.971296
vt 0.574925 0.953194
vt 0.222482 0.975243
vt 0.421752 0.189465
vt 0.691239 0.249308
vt 0.011684 0.282235
vt 0.095861 0.301955
vt 0.409899 0.015114
vt 0.791176 0.181696
vt 0.692812 0.630511
vt 0.848132 0.766804
vt 0.758410 0.679435
vt 0.858169 0.645203
vt 0.771024 0.746796
vt 0.890396 0.718094
vt 0.746334 0.846107
vt 0.734457 0.912869
vt 0.711347 0.877839
vt 0.805631 0.897888
vt 0.797268 0.850730
vt 0.125492 0.037407
vt 0.773687 0.022459
vt 0.727148 0.410483
vt 0.795032 0.436958
vt 0.683120 0.896003
vt 0.823681 0.781100
vt 0.802515 0.633711
vt 0.792613 0.942323
s 1
usemtl Standard_7
f 11/15/7 28/16/8 10/17/9
f 13/18/10 31/19/11 30/20/12
f 14/21/13 32/22/14 55/23/15
f 57/24/16 56/25/17 35/26/18
f 37/27/19 58/28/20 16/29/21
f 59/30/22 58/28/20 38/31/23
f 33/32/24 40/33/25 17/34/26
f 36/35/27 35/26/18 34/36/28
f 34/36/28 20/37/29 36/35/27
f 20/37/29 22/38/30 36/35/27
f 23/39/31 37/27/19 22/38/30
f 25/40/32 26/41/33 39/42/34
f 34/36/28 19/43/35 18/44/36
f 20/37/29 21/45/37 22/38/30
f 53/46/38 9/47/39 28/16/8
f 30/20/12 21/45/37 13/18/10
f 17/34/26 26/41/33 53/46/38
f 19/43/35 33/32/24 17/34/26
f 37/27/19 38/31/23 58/28/20
f 41/48/40 46/49/41 42/50/42
f 57/24/16 47/51/43 56/25/17
f 48/52/44 47/51/43 57/24/16
f 58/28/20 43/53/45 16/29/21
f 59/30/22 44/54/46 58/28/20
f 42/50/42 62/55/47 59/56/22
f 45/57/48 46/49/41 50/58/49
f 42/50/42 45/57/48 62/55/47
f 47/51/43 50/58/49 46/49/41
f 48/52/44 61/59/50 51/60/51
f 49/61/52 61/59/50 48/52/44
f 44/54/46 60/62/53 52/63/54
f 62/55/47 45/57/48 60/64/53
f 29/65/55 34/36/28 18/44/36
f 54/66/56 22/38/30 30/20/12
f 25/40/32 55/67/15 27/68/57
f 9/47/39 53/46/38 27/68/57
f 18/44/36 28/16/8 11/15/7
f 12/69/58 29/65/55 11/15/7
f 55/70/15 54/66/56 31/19/11
f 47/51/43 41/48/40 56/25/17
f 35/26/18 56/25/17 33/32/24
f 57/24/16 36/35/27 16/29/21
f 38/31/23 39/71/34 59/30/22
f 12/72/58 15/73/59 31/74/11
f 15/73/59 12/72/58 10/75/9
f 12/72/58 31/74/11 13/76/10
f 50/77/49 60/78/53 45/79/48
f 61/80/50 50/77/49 51/81/51
f 49/61/52 48/52/44 43/53/45
f 43/53/45 52/63/54 49/61/52
f 43/53/45 44/54/46 52/63/54
f 15/82/59 10/17/9 9/47/39
f 31/19/11 14/83/13 55/70/15
f 14/21/13 15/82/59 32/22/14
f 59/56/22 40/33/25 41/48/40
f 40/33/25 33/32/24 41/48/40
f 17/34/26 40/33/25 26/41/33
f 33/32/24 19/43/35 35/26/18
f 34/36/28 35/26/18 19/43/35
f 36/35/27 22/38/30 37/27/19
f 23/39/31 38/31/23 37/27/19
f 23/39/31 24/84/60 38/31/23
f 25/85/32 38/31/23 24/84/60
f 25/85/32 39/71/34 38/31/23
f 26/41/33 40/33/25 39/42/34
f 17/34/26 18/44/36 19/43/35
f 18/44/36 11/15/7 29/65/55
f 13/18/10 21/45/37 29/65/55
f 31/19/11 54/66/56 30/20/12
f 25/40/32 27/68/57 26/41/33
f 16/29/21 36/35/27 37/27/19
f 59/56/22 39/42/34 40/33/25
f 41/48/40 47/51/43 46/49/41
f 57/24/16 16/29/21 48/52/44
f 16/29/21 43/53/45 48/52/44
f 58/28/20 44/54/46 43/53/45
f 59/30/22 62/86/47 44/54/46
f 51/60/51 47/51/43 48/52/44
f 47/51/43 51/60/51 50/58/49
f 49/61/52 52/63/54 61/59/50
f 44/54/46 62/86/47 60/62/53
f 28/16/8 17/34/26 53/46/38
f 18/44/36 17/34/26 28/16/8
f 20/37/29 34/36/28 29/65/55
f 29/65/55 21/45/37 20/37/29
f 21/45/37 30/20/12 22/38/30
f 23/39/31 22/38/30 54/66/56
f 24/84/60 23/39/31 54/66/56
f 25/85/32 24/84/60 55/70/15
f 54/66/56 55/70/15 24/84/60
f 55/67/15 32/22/14 27/68/57
f 26/41/33 27/68/57 53/46/38
f 9/47/39 10/17/9 28/16/8
f 29/65/55 12/69/58 13/18/10
f 9/47/39 27/68/57 32/22/14
f 32/22/14 15/82/59 9/47/39
f 41/48/40 42/50/42 59/56/22
f 56/25/17 41/48/40 33/32/24
f 35/26/18 36/35/27 57/24/16
f 11/87/7 10/75/9 12/72/58
f 31/74/11 15/73/59 14/88/13
f 60/78/53 61/80/50 52/89/54
f 60/78/53 50/77/49 61/80/50
f 42/50/42 46/49/41 45/57/48
